<?xml version="1.0" encoding="utf-8"?>
<!-- Generator: Adobe Illustrator 18.1.1, SVG Export Plug-In . SVG Version: 6.00 Build 0)  -->
<svg version="1.1" id="Layer_1" xmlns="http://www.w3.org/2000/svg" xmlns:xlink="http://www.w3.org/1999/xlink" x="0px" y="0px"
	 viewBox="0 0 307.1 62.9" enable-background="new 0 0 307.1 62.9" xml:space="preserve">
<g>
	<g>
		<path fill="#FFFFFF" d="M100.7,18.5c0,1.8-0.2,3.5-0.7,5c-0.5,1.5-1.2,2.7-2.1,3.7c-0.9,1-2,1.8-3.2,2.3c-1.3,0.5-2.7,0.8-4.2,0.8
			c-1.5,0-2.9-0.3-4.2-0.8C85,29,83.9,28.2,83,27.2c-0.9-1-1.6-2.3-2.1-3.7c-0.5-1.5-0.8-3.1-0.8-5v-1.1c0-1.8,0.3-3.5,0.8-5
			c0.5-1.5,1.2-2.7,2.1-3.8c0.9-1,2-1.8,3.3-2.4c1.3-0.5,2.7-0.8,4.2-0.8c1.5,0,2.9,0.3,4.2,0.8c1.3,0.5,2.3,1.3,3.3,2.4
			c0.9,1,1.6,2.3,2.1,3.8c0.5,1.5,0.8,3.1,0.8,5V18.5z M95.6,17.4c0-2.5-0.5-4.5-1.4-5.8c-0.9-1.3-2.2-2-3.9-2c-1.7,0-3,0.7-3.9,2
			c-0.9,1.3-1.4,3.2-1.4,5.8v1.1c0,1.3,0.1,2.4,0.4,3.3c0.2,1,0.6,1.8,1,2.4c0.4,0.7,1,1.2,1.7,1.5c0.7,0.3,1.4,0.5,2.2,0.5
			c1.7,0,3-0.7,3.9-2c0.9-1.3,1.3-3.3,1.3-5.8V17.4z"/>
		<path fill="#FFFFFF" d="M109.1,30h-4.8V4.5h4.8V30z"/>
		<path fill="#FFFFFF" d="M119.7,23.2l3.3-11.2h5.1L121,32.7c-0.2,0.5-0.4,0.9-0.6,1.5c-0.3,0.5-0.6,1-1.1,1.5
			c-0.4,0.5-1,0.8-1.6,1.1c-0.7,0.3-1.5,0.5-2.4,0.5c-0.2,0-0.4,0-0.6,0c-0.2,0-0.3,0-0.5-0.1c-0.2,0-0.3-0.1-0.5-0.1
			c-0.2,0-0.3-0.1-0.5-0.1v-3.6c0.1,0,0.2,0,0.4,0c0.1,0,0.2,0,0.4,0c0.5,0,0.9,0,1.2-0.1c0.3-0.1,0.6-0.2,0.9-0.3
			c0.2-0.2,0.4-0.4,0.6-0.6c0.2-0.2,0.3-0.5,0.4-0.9l0.5-1.3l-6.3-18h5.2L119.7,23.2z"/>
		<path fill="#FFFFFF" d="M134.6,12.1l0.1,2c0.6-0.7,1.3-1.3,2.2-1.7c0.9-0.4,1.9-0.6,3-0.6c1.1,0,2,0.2,2.8,0.6
			c0.8,0.4,1.5,1.1,1.9,2.1c0.6-0.9,1.3-1.5,2.2-2c0.9-0.5,2-0.7,3.2-0.7c0.9,0,1.7,0.1,2.4,0.4c0.7,0.2,1.3,0.6,1.8,1.2
			c0.5,0.5,0.9,1.2,1.2,2.1c0.3,0.9,0.4,1.9,0.4,3.2V30H151V18.6c0-0.6-0.1-1.1-0.2-1.5c-0.1-0.4-0.3-0.7-0.5-0.9
			c-0.2-0.2-0.5-0.4-0.8-0.4c-0.3-0.1-0.7-0.1-1.1-0.1c-0.7,0-1.4,0.2-1.9,0.6c-0.5,0.4-0.9,0.9-1.1,1.5c0,0.1,0,0.1,0,0.2
			c0,0.1,0,0.1,0,0.2v12h-4.8V18.6c0-0.6-0.1-1.1-0.2-1.5c-0.1-0.4-0.3-0.7-0.5-0.9c-0.2-0.2-0.5-0.4-0.9-0.5
			c-0.3-0.1-0.7-0.1-1.1-0.1c-0.7,0-1.3,0.1-1.8,0.4c-0.5,0.3-0.9,0.7-1.2,1.2V30h-4.8v-18H134.6z"/>
		<path fill="#FFFFFF" d="M175.7,21.2c0,1.3-0.2,2.5-0.5,3.6c-0.3,1.1-0.8,2.1-1.3,2.9c-0.6,0.8-1.3,1.5-2.2,1.9
			c-0.9,0.5-1.9,0.7-3,0.7c-1,0-1.8-0.2-2.5-0.5c-0.7-0.3-1.4-0.8-1.9-1.4v8.5h-4.8V12.1h4.4l0.2,1.8c0.6-0.7,1.2-1.2,1.9-1.5
			c0.7-0.4,1.6-0.5,2.6-0.5c1.1,0,2.1,0.2,3,0.7c0.9,0.4,1.6,1.1,2.2,1.9c0.6,0.8,1,1.8,1.3,2.9c0.3,1.1,0.5,2.4,0.5,3.7V21.2z
			 M170.9,20.9c0-0.7-0.1-1.4-0.2-2.1c-0.1-0.6-0.3-1.2-0.6-1.7c-0.3-0.5-0.6-0.8-1.1-1.1c-0.4-0.3-1-0.4-1.6-0.4
			c-0.8,0-1.4,0.1-1.9,0.4c-0.5,0.3-0.9,0.7-1.2,1.3v7.4c0.3,0.6,0.7,1,1.2,1.3c0.5,0.3,1.2,0.5,2,0.5c0.6,0,1.2-0.1,1.6-0.4
			c0.4-0.3,0.8-0.7,1.1-1.1c0.3-0.5,0.5-1,0.6-1.7c0.1-0.6,0.2-1.3,0.2-2V20.9z"/>
		<path fill="#FFFFFF" d="M178.6,7.4c0-0.7,0.2-1.3,0.7-1.8c0.5-0.5,1.1-0.7,2-0.7c0.4,0,0.8,0.1,1.1,0.2c0.3,0.1,0.6,0.3,0.8,0.5
			c0.2,0.2,0.4,0.5,0.5,0.8c0.1,0.3,0.2,0.6,0.2,1c0,0.4-0.1,0.7-0.2,1c-0.1,0.3-0.3,0.6-0.5,0.8c-0.2,0.2-0.5,0.4-0.8,0.5
			c-0.3,0.1-0.7,0.2-1.1,0.2c-0.4,0-0.8-0.1-1.1-0.2c-0.3-0.1-0.6-0.3-0.8-0.5c-0.2-0.2-0.4-0.5-0.5-0.8
			C178.7,8.1,178.6,7.8,178.6,7.4z M183.7,30h-4.8v-18h4.8V30z"/>
		<path fill="#FFFFFF" d="M198.1,30c-0.2-0.4-0.4-1-0.5-1.6c-0.5,0.5-1.1,1-1.8,1.4c-0.7,0.4-1.6,0.6-2.7,0.6
			c-0.9,0-1.7-0.1-2.4-0.4c-0.7-0.3-1.4-0.6-1.9-1.1c-0.5-0.5-1-1-1.3-1.7c-0.3-0.7-0.5-1.4-0.5-2.2c0-0.9,0.2-1.8,0.5-2.5
			c0.3-0.7,0.9-1.4,1.6-1.9c0.7-0.5,1.6-0.9,2.6-1.2c1-0.3,2.2-0.4,3.6-0.4h2.1v-1c0-0.8-0.2-1.5-0.6-2c-0.4-0.5-1.1-0.7-2-0.7
			c-0.8,0-1.4,0.2-1.9,0.6c-0.5,0.4-0.7,0.9-0.7,1.6h-4.8c0-0.8,0.2-1.5,0.5-2.2c0.4-0.7,0.9-1.3,1.5-1.8c0.7-0.5,1.5-0.9,2.4-1.2
			c0.9-0.3,2-0.5,3.2-0.5c1,0,2,0.1,2.9,0.4c0.9,0.3,1.6,0.7,2.3,1.2c0.6,0.5,1.1,1.2,1.5,2c0.4,0.8,0.5,1.7,0.5,2.8v7.6
			c0,0.5,0,1,0,1.4c0,0.4,0.1,0.8,0.1,1.1c0.1,0.3,0.1,0.6,0.2,0.9c0.1,0.3,0.2,0.5,0.3,0.7V30H198.1z M194.1,26.7
			c0.4,0,0.8,0,1.1-0.1c0.3-0.1,0.7-0.2,0.9-0.4c0.3-0.2,0.5-0.3,0.7-0.6c0.2-0.2,0.4-0.4,0.5-0.6v-3.1h-2c-0.6,0-1.2,0.1-1.6,0.2
			c-0.5,0.1-0.8,0.3-1.1,0.6c-0.3,0.2-0.5,0.5-0.7,0.9c-0.1,0.3-0.2,0.7-0.2,1.1c0,0.6,0.2,1.1,0.6,1.5
			C192.8,26.5,193.4,26.7,194.1,26.7z"/>
		<path fill="#FFFFFF" d="M215.6,25.1c0-0.3,0-0.5-0.1-0.7c-0.1-0.2-0.3-0.4-0.6-0.6c-0.3-0.2-0.7-0.4-1.1-0.5
			c-0.5-0.2-1.1-0.3-1.8-0.5c-0.9-0.2-1.8-0.4-2.5-0.7c-0.8-0.3-1.5-0.7-2-1.1c-0.6-0.4-1-1-1.3-1.5c-0.3-0.6-0.5-1.3-0.5-2
			c0-0.8,0.2-1.5,0.5-2.1c0.3-0.7,0.8-1.3,1.4-1.8c0.6-0.5,1.4-0.9,2.3-1.2c0.9-0.3,1.9-0.4,3-0.4c1.2,0,2.2,0.1,3.1,0.4
			c0.9,0.3,1.7,0.7,2.4,1.2c0.6,0.5,1.1,1.1,1.5,1.8c0.3,0.7,0.5,1.5,0.5,2.3h-4.8c0-0.7-0.2-1.3-0.7-1.7c-0.4-0.4-1.1-0.7-2.1-0.7
			c-0.8,0-1.4,0.2-1.9,0.5c-0.4,0.4-0.7,0.8-0.7,1.4c0,0.3,0.1,0.5,0.2,0.7c0.1,0.2,0.3,0.4,0.6,0.6c0.3,0.2,0.6,0.3,1,0.5
			c0.4,0.1,0.9,0.3,1.6,0.4c1,0.2,1.9,0.4,2.7,0.7c0.8,0.3,1.5,0.6,2.2,1.1c0.6,0.4,1.1,1,1.4,1.6c0.3,0.6,0.5,1.4,0.5,2.3
			c0,0.8-0.2,1.5-0.5,2.2c-0.4,0.7-0.9,1.2-1.5,1.7c-0.7,0.5-1.5,0.9-2.4,1.1c-0.9,0.3-2,0.4-3.1,0.4c-1.3,0-2.4-0.2-3.3-0.5
			c-1-0.4-1.8-0.8-2.4-1.4c-0.7-0.6-1.2-1.2-1.5-1.9c-0.3-0.7-0.5-1.4-0.5-2.2h4.5c0,0.5,0.1,0.9,0.3,1.2c0.2,0.3,0.4,0.6,0.7,0.8
			c0.3,0.2,0.6,0.4,1,0.5c0.4,0.1,0.8,0.1,1.2,0.1c0.9,0,1.6-0.2,2.1-0.5C215.4,26.1,215.6,25.6,215.6,25.1z"/>
		<path fill="#FFFFFF" d="M229.9,22.8l-1.7,1.7V30h-4.8V4.5h4.8v14.1l0.9-1.2l4.6-5.4h5.8l-6.5,7.5L240,30h-5.5L229.9,22.8z"/>
		<path fill="#FFFFFF" d="M240.8,20.9c0-1.3,0.2-2.5,0.6-3.6c0.4-1.1,0.9-2.1,1.6-2.9c0.7-0.8,1.6-1.5,2.7-1.9
			c1.1-0.5,2.3-0.7,3.6-0.7c1.4,0,2.6,0.2,3.6,0.7c1.1,0.5,2,1.1,2.7,1.9c0.7,0.8,1.3,1.8,1.7,2.9c0.4,1.1,0.6,2.3,0.6,3.6v0.3
			c0,1.3-0.2,2.5-0.6,3.6c-0.4,1.1-0.9,2.1-1.7,2.9c-0.7,0.8-1.6,1.5-2.7,1.9c-1.1,0.5-2.3,0.7-3.6,0.7c-1.4,0-2.6-0.2-3.6-0.7
			c-1.1-0.5-1.9-1.1-2.7-1.9c-0.7-0.8-1.3-1.8-1.7-2.9c-0.4-1.1-0.6-2.3-0.6-3.6V20.9z M245.6,21.2c0,0.7,0.1,1.4,0.2,2.1
			c0.1,0.6,0.3,1.2,0.6,1.7c0.3,0.5,0.7,0.8,1.1,1.1c0.5,0.3,1,0.4,1.7,0.4c0.7,0,1.2-0.1,1.7-0.4c0.5-0.3,0.9-0.6,1.2-1.1
			c0.3-0.5,0.5-1,0.6-1.7c0.1-0.6,0.2-1.3,0.2-2.1v-0.3c0-0.7-0.1-1.4-0.2-2c-0.1-0.6-0.3-1.2-0.6-1.7c-0.3-0.5-0.7-0.9-1.2-1.1
			c-0.5-0.3-1.1-0.4-1.7-0.4c-0.7,0-1.2,0.1-1.7,0.4c-0.5,0.3-0.9,0.7-1.1,1.1c-0.3,0.5-0.5,1-0.6,1.7c-0.1,0.6-0.2,1.3-0.2,2V21.2z
			"/>
		<path fill="#FFFFFF" d="M265.8,30H261V4.5h4.8V30z"/>
		<path fill="#FFFFFF" d="M280.2,30c-0.2-0.4-0.4-1-0.5-1.6c-0.5,0.5-1.1,1-1.8,1.4c-0.7,0.4-1.6,0.6-2.7,0.6
			c-0.9,0-1.7-0.1-2.4-0.4c-0.7-0.3-1.4-0.6-1.9-1.1c-0.5-0.5-1-1-1.3-1.7c-0.3-0.7-0.5-1.4-0.5-2.2c0-0.9,0.2-1.8,0.5-2.5
			c0.3-0.7,0.9-1.4,1.6-1.9c0.7-0.5,1.6-0.9,2.6-1.2c1-0.3,2.2-0.4,3.6-0.4h2.1v-1c0-0.8-0.2-1.5-0.6-2c-0.4-0.5-1.1-0.7-2-0.7
			c-0.8,0-1.4,0.2-1.9,0.6c-0.5,0.4-0.7,0.9-0.7,1.6h-4.8c0-0.8,0.2-1.5,0.5-2.2c0.4-0.7,0.9-1.3,1.5-1.8c0.7-0.5,1.5-0.9,2.4-1.2
			c0.9-0.3,2-0.5,3.2-0.5c1,0,2,0.1,2.9,0.4c0.9,0.3,1.6,0.7,2.3,1.2c0.6,0.5,1.1,1.2,1.5,2c0.4,0.8,0.5,1.7,0.5,2.8v7.6
			c0,0.5,0,1,0,1.4c0,0.4,0.1,0.8,0.1,1.1c0.1,0.3,0.1,0.6,0.2,0.9c0.1,0.3,0.2,0.5,0.3,0.7V30H280.2z M276.2,26.7
			c0.4,0,0.8,0,1.1-0.1c0.3-0.1,0.7-0.2,0.9-0.4c0.3-0.2,0.5-0.3,0.7-0.6c0.2-0.2,0.4-0.4,0.5-0.6v-3.1h-2c-0.6,0-1.2,0.1-1.6,0.2
			c-0.5,0.1-0.8,0.3-1.1,0.6c-0.3,0.2-0.5,0.5-0.7,0.9c-0.1,0.3-0.2,0.7-0.2,1.1c0,0.6,0.2,1.1,0.6,1.5
			C274.9,26.5,275.5,26.7,276.2,26.7z"/>
		<path fill="#FFFFFF" d="M292.4,12.1l0.1,2.1c0.6-0.8,1.4-1.4,2.2-1.8c0.9-0.4,1.8-0.6,2.9-0.6c0.9,0,1.6,0.1,2.3,0.4
			c0.7,0.2,1.3,0.6,1.8,1.2c0.5,0.5,0.9,1.3,1.2,2.1c0.3,0.9,0.4,1.9,0.4,3.2V30h-4.8V18.6c0-0.6-0.1-1.1-0.2-1.4
			c-0.1-0.4-0.3-0.7-0.6-0.9c-0.2-0.2-0.5-0.4-0.9-0.5c-0.4-0.1-0.8-0.1-1.2-0.1c-0.7,0-1.3,0.2-1.8,0.5c-0.5,0.3-0.9,0.7-1.2,1.3
			V30h-4.8v-18H292.4z"/>
	</g>
	<g>
		<path fill="#FFFFFF" d="M90,55h-2.3v-4.9H83V55h-2.3V43.6H83v4.6h4.6v-4.6H90V55z"/>
		<path fill="#FFFFFF" d="M95.7,55.2c-0.7,0-1.2-0.1-1.8-0.3c-0.5-0.2-1-0.5-1.3-0.9c-0.4-0.4-0.6-0.8-0.8-1.3
			c-0.2-0.5-0.3-1-0.3-1.6v-0.3c0-0.6,0.1-1.2,0.3-1.8c0.2-0.5,0.4-1,0.8-1.4c0.3-0.4,0.8-0.7,1.2-0.9c0.5-0.2,1-0.3,1.6-0.3
			c0.6,0,1.1,0.1,1.6,0.3c0.5,0.2,0.9,0.5,1.2,0.8c0.3,0.4,0.6,0.8,0.7,1.3c0.2,0.5,0.2,1.1,0.2,1.7v1h-5.4c0,0.3,0.1,0.5,0.2,0.8
			c0.1,0.2,0.3,0.4,0.4,0.6c0.2,0.2,0.4,0.3,0.6,0.4c0.2,0.1,0.5,0.1,0.8,0.1c0.4,0,0.8-0.1,1.1-0.2c0.3-0.2,0.6-0.4,0.9-0.7
			l1.1,1.2c-0.1,0.2-0.3,0.4-0.5,0.6c-0.2,0.2-0.4,0.3-0.7,0.5c-0.3,0.1-0.6,0.3-0.9,0.3C96.5,55.1,96.2,55.2,95.7,55.2z M95.5,48.2
			c-0.2,0-0.5,0-0.6,0.1c-0.2,0.1-0.3,0.2-0.5,0.4c-0.1,0.2-0.2,0.3-0.3,0.6c-0.1,0.2-0.1,0.5-0.2,0.7H97v-0.2c0-0.2,0-0.4-0.1-0.6
			c-0.1-0.2-0.2-0.4-0.3-0.5c-0.1-0.1-0.3-0.2-0.5-0.3C96,48.3,95.7,48.2,95.5,48.2z"/>
		<path fill="#FFFFFF" d="M102.9,55h-2.3V43h2.3V55z"/>
		<path fill="#FFFFFF" d="M109.3,52.7c0-0.1,0-0.2-0.1-0.3c0-0.1-0.1-0.2-0.3-0.3c-0.1-0.1-0.3-0.2-0.5-0.2
			c-0.2-0.1-0.5-0.2-0.9-0.2c-0.4-0.1-0.8-0.2-1.2-0.4c-0.4-0.1-0.7-0.3-1-0.5c-0.3-0.2-0.5-0.5-0.6-0.7c-0.2-0.3-0.2-0.6-0.2-1
			c0-0.4,0.1-0.7,0.2-1c0.2-0.3,0.4-0.6,0.7-0.8c0.3-0.2,0.6-0.4,1.1-0.6c0.4-0.1,0.9-0.2,1.4-0.2c0.5,0,1,0.1,1.5,0.2
			c0.4,0.1,0.8,0.3,1.1,0.6c0.3,0.2,0.5,0.5,0.7,0.9c0.2,0.3,0.2,0.7,0.2,1.1h-2.3c0-0.3-0.1-0.6-0.3-0.8c-0.2-0.2-0.5-0.3-1-0.3
			c-0.4,0-0.7,0.1-0.9,0.3c-0.2,0.2-0.3,0.4-0.3,0.7c0,0.1,0,0.2,0.1,0.3c0.1,0.1,0.1,0.2,0.3,0.3c0.1,0.1,0.3,0.2,0.5,0.2
			c0.2,0.1,0.4,0.1,0.7,0.2c0.5,0.1,0.9,0.2,1.3,0.3c0.4,0.1,0.7,0.3,1,0.5c0.3,0.2,0.5,0.5,0.7,0.8c0.2,0.3,0.2,0.6,0.2,1.1
			c0,0.4-0.1,0.7-0.2,1c-0.2,0.3-0.4,0.6-0.7,0.8c-0.3,0.2-0.7,0.4-1.1,0.5c-0.4,0.1-0.9,0.2-1.5,0.2c-0.6,0-1.1-0.1-1.6-0.2
			c-0.5-0.2-0.8-0.4-1.1-0.7c-0.3-0.3-0.5-0.6-0.7-0.9c-0.2-0.3-0.2-0.7-0.2-1h2.1c0,0.2,0.1,0.4,0.1,0.6c0.1,0.2,0.2,0.3,0.3,0.4
			c0.1,0.1,0.3,0.2,0.5,0.2c0.2,0,0.4,0.1,0.6,0.1c0.4,0,0.8-0.1,1-0.2C109.2,53.2,109.3,52.9,109.3,52.7z"/>
		<path fill="#FFFFFF" d="M113,44.4c0-0.3,0.1-0.6,0.3-0.8c0.2-0.2,0.5-0.3,0.9-0.3c0.2,0,0.4,0,0.5,0.1c0.2,0.1,0.3,0.1,0.4,0.2
			c0.1,0.1,0.2,0.2,0.3,0.4c0.1,0.1,0.1,0.3,0.1,0.5c0,0.2,0,0.3-0.1,0.5c-0.1,0.1-0.1,0.3-0.3,0.4c-0.1,0.1-0.2,0.2-0.4,0.2
			c-0.2,0.1-0.3,0.1-0.5,0.1c-0.2,0-0.4,0-0.5-0.1c-0.2-0.1-0.3-0.1-0.4-0.2c-0.1-0.1-0.2-0.2-0.3-0.4C113,44.7,113,44.5,113,44.4z
			 M115.4,55h-2.3v-8.5h2.3V55z"/>
		<path fill="#FFFFFF" d="M119.3,46.6l0.1,1c0.3-0.4,0.6-0.6,1.1-0.8c0.4-0.2,0.9-0.3,1.4-0.3c0.4,0,0.8,0.1,1.1,0.2
			c0.3,0.1,0.6,0.3,0.8,0.6c0.2,0.3,0.4,0.6,0.5,1c0.1,0.4,0.2,0.9,0.2,1.5V55h-2.3v-5.4c0-0.3,0-0.5-0.1-0.7
			c-0.1-0.2-0.1-0.3-0.3-0.4c-0.1-0.1-0.3-0.2-0.4-0.2c-0.2,0-0.4-0.1-0.6-0.1c-0.3,0-0.6,0.1-0.9,0.2c-0.2,0.1-0.4,0.3-0.6,0.6v6
			h-2.3v-8.5H119.3z"/>
		<path fill="#FFFFFF" d="M125.8,50.7c0-0.6,0.1-1.2,0.2-1.8c0.2-0.5,0.4-1,0.7-1.4c0.3-0.4,0.7-0.7,1.1-0.9
			c0.4-0.2,0.9-0.3,1.4-0.3c0.5,0,0.9,0.1,1.3,0.2c0.4,0.2,0.6,0.4,0.9,0.7l0.1-0.8h2v8.2c0,0.6-0.1,1.1-0.3,1.5
			c-0.2,0.4-0.5,0.8-0.8,1.1c-0.4,0.3-0.8,0.5-1.3,0.7c-0.5,0.2-1,0.2-1.7,0.2c-0.3,0-0.5,0-0.8-0.1c-0.3-0.1-0.6-0.1-0.9-0.2
			c-0.3-0.1-0.6-0.2-0.8-0.4c-0.3-0.2-0.5-0.4-0.6-0.6l1-1.4c0.3,0.3,0.6,0.5,0.9,0.7c0.3,0.2,0.7,0.2,1.1,0.2
			c0.6,0,1.1-0.2,1.4-0.5c0.3-0.3,0.5-0.8,0.5-1.4v-0.5c-0.2,0.3-0.5,0.5-0.9,0.7c-0.3,0.2-0.7,0.2-1.2,0.2c-0.5,0-1-0.1-1.4-0.3
			c-0.4-0.2-0.8-0.5-1.1-0.9c-0.3-0.4-0.5-0.8-0.7-1.4c-0.2-0.5-0.2-1.1-0.2-1.7V50.7z M128.1,50.9c0,0.3,0,0.7,0.1,1
			c0.1,0.3,0.2,0.6,0.3,0.8c0.1,0.2,0.3,0.4,0.5,0.5c0.2,0.1,0.5,0.2,0.8,0.2c0.4,0,0.7-0.1,0.9-0.2c0.2-0.1,0.4-0.3,0.6-0.6V49
			c-0.1-0.2-0.3-0.4-0.6-0.6c-0.2-0.1-0.5-0.2-0.9-0.2c-0.3,0-0.6,0.1-0.8,0.2c-0.2,0.1-0.4,0.3-0.5,0.5c-0.1,0.2-0.3,0.5-0.3,0.8
			c-0.1,0.3-0.1,0.6-0.1,1V50.9z"/>
		<path fill="#FFFFFF" d="M142.9,50.9c0,0.6-0.1,1.2-0.2,1.7c-0.1,0.5-0.3,1-0.6,1.4c-0.3,0.4-0.6,0.7-1,0.9
			c-0.4,0.2-0.9,0.3-1.4,0.3c-0.5,0-0.9-0.1-1.3-0.3c-0.4-0.2-0.7-0.4-0.9-0.8l-0.1,0.9h-2V43h2.3v4.3c0.2-0.3,0.5-0.5,0.9-0.7
			c0.3-0.2,0.7-0.2,1.2-0.2c0.6,0,1,0.1,1.4,0.3c0.4,0.2,0.8,0.5,1,0.9c0.3,0.4,0.5,0.8,0.6,1.4c0.1,0.5,0.2,1.1,0.2,1.7V50.9z
			 M140.7,50.7c0-0.3,0-0.6-0.1-0.9c0-0.3-0.1-0.6-0.3-0.8c-0.1-0.2-0.3-0.4-0.5-0.5c-0.2-0.1-0.5-0.2-0.8-0.2
			c-0.4,0-0.7,0.1-0.9,0.2c-0.2,0.2-0.4,0.4-0.6,0.7v3.3c0.1,0.3,0.3,0.5,0.6,0.7c0.2,0.2,0.6,0.2,0.9,0.2c0.3,0,0.6-0.1,0.8-0.2
			c0.2-0.1,0.4-0.3,0.5-0.5c0.1-0.2,0.2-0.5,0.3-0.8c0-0.3,0.1-0.6,0.1-1V50.7z"/>
		<path fill="#FFFFFF" d="M144,50.7c0-0.6,0.1-1.2,0.3-1.7c0.2-0.5,0.4-1,0.8-1.4c0.3-0.4,0.8-0.7,1.3-0.9c0.5-0.2,1.1-0.3,1.7-0.3
			c0.6,0,1.2,0.1,1.7,0.3c0.5,0.2,0.9,0.5,1.3,0.9c0.3,0.4,0.6,0.8,0.8,1.4c0.2,0.5,0.3,1.1,0.3,1.7v0.2c0,0.6-0.1,1.2-0.3,1.7
			c-0.2,0.5-0.4,1-0.8,1.4c-0.3,0.4-0.8,0.7-1.3,0.9c-0.5,0.2-1.1,0.3-1.7,0.3c-0.6,0-1.2-0.1-1.7-0.3c-0.5-0.2-0.9-0.5-1.3-0.9
			c-0.3-0.4-0.6-0.8-0.8-1.4c-0.2-0.5-0.3-1.1-0.3-1.7V50.7z M146.2,50.9c0,0.3,0,0.7,0.1,1c0.1,0.3,0.2,0.6,0.3,0.8
			c0.1,0.2,0.3,0.4,0.5,0.5c0.2,0.1,0.5,0.2,0.8,0.2c0.3,0,0.6-0.1,0.8-0.2c0.2-0.1,0.4-0.3,0.5-0.5c0.1-0.2,0.2-0.5,0.3-0.8
			c0.1-0.3,0.1-0.6,0.1-1v-0.2c0-0.3,0-0.6-0.1-0.9c-0.1-0.3-0.2-0.6-0.3-0.8c-0.1-0.2-0.3-0.4-0.5-0.5c-0.2-0.1-0.5-0.2-0.8-0.2
			c-0.3,0-0.6,0.1-0.8,0.2c-0.2,0.1-0.4,0.3-0.5,0.5c-0.1,0.2-0.2,0.5-0.3,0.8c-0.1,0.3-0.1,0.6-0.1,0.9V50.9z"/>
		<path fill="#FFFFFF" d="M158.1,48.7c-0.1,0-0.2,0-0.4,0c-0.2,0-0.3,0-0.4,0c-0.4,0-0.8,0.1-1.1,0.2c-0.3,0.1-0.5,0.4-0.6,0.6V55
			h-2.3v-8.5h2.1l0.1,1c0.2-0.4,0.5-0.6,0.8-0.9c0.3-0.2,0.7-0.3,1.1-0.3c0.1,0,0.2,0,0.4,0c0.1,0,0.2,0,0.3,0.1L158.1,48.7z"/>
		<path fill="#FFFFFF" d="M158.7,50.7c0-0.6,0.1-1.2,0.2-1.8c0.2-0.5,0.4-1,0.7-1.4c0.3-0.4,0.7-0.7,1.1-0.9
			c0.4-0.2,0.9-0.3,1.4-0.3c0.5,0,0.9,0.1,1.3,0.2c0.4,0.2,0.6,0.4,0.9,0.7l0.1-0.8h2v8.2c0,0.6-0.1,1.1-0.3,1.5
			c-0.2,0.4-0.5,0.8-0.8,1.1c-0.4,0.3-0.8,0.5-1.3,0.7c-0.5,0.2-1,0.2-1.7,0.2c-0.3,0-0.5,0-0.8-0.1c-0.3-0.1-0.6-0.1-0.9-0.2
			c-0.3-0.1-0.6-0.2-0.8-0.4c-0.3-0.2-0.5-0.4-0.6-0.6l1-1.4c0.3,0.3,0.6,0.5,0.9,0.7c0.3,0.2,0.7,0.2,1.1,0.2
			c0.6,0,1.1-0.2,1.4-0.5c0.3-0.3,0.5-0.8,0.5-1.4v-0.5c-0.2,0.3-0.5,0.5-0.9,0.7c-0.3,0.2-0.7,0.2-1.2,0.2c-0.5,0-1-0.1-1.4-0.3
			c-0.4-0.2-0.8-0.5-1.1-0.9c-0.3-0.4-0.5-0.8-0.7-1.4c-0.2-0.5-0.2-1.1-0.2-1.7V50.7z M161,50.9c0,0.3,0,0.7,0.1,1
			c0.1,0.3,0.2,0.6,0.3,0.8c0.1,0.2,0.3,0.4,0.5,0.5c0.2,0.1,0.5,0.2,0.8,0.2c0.4,0,0.7-0.1,0.9-0.2c0.2-0.1,0.4-0.3,0.6-0.6V49
			c-0.1-0.2-0.3-0.4-0.6-0.6c-0.2-0.1-0.5-0.2-0.9-0.2c-0.3,0-0.6,0.1-0.8,0.2c-0.2,0.1-0.4,0.3-0.5,0.5c-0.1,0.2-0.3,0.5-0.3,0.8
			c-0.1,0.3-0.1,0.6-0.1,1V50.9z"/>
		<path fill="#FFFFFF" d="M172.8,52.7c0-0.1,0-0.2-0.1-0.3c0-0.1-0.1-0.2-0.3-0.3c-0.1-0.1-0.3-0.2-0.5-0.2
			c-0.2-0.1-0.5-0.2-0.9-0.2c-0.4-0.1-0.8-0.2-1.2-0.4c-0.4-0.1-0.7-0.3-1-0.5c-0.3-0.2-0.5-0.5-0.6-0.7c-0.2-0.3-0.2-0.6-0.2-1
			c0-0.4,0.1-0.7,0.2-1c0.2-0.3,0.4-0.6,0.7-0.8c0.3-0.2,0.6-0.4,1.1-0.6c0.4-0.1,0.9-0.2,1.4-0.2c0.5,0,1,0.1,1.5,0.2
			c0.4,0.1,0.8,0.3,1.1,0.6c0.3,0.2,0.5,0.5,0.7,0.9c0.2,0.3,0.2,0.7,0.2,1.1h-2.3c0-0.3-0.1-0.6-0.3-0.8c-0.2-0.2-0.5-0.3-1-0.3
			c-0.4,0-0.7,0.1-0.9,0.3c-0.2,0.2-0.3,0.4-0.3,0.7c0,0.1,0,0.2,0.1,0.3c0.1,0.1,0.1,0.2,0.3,0.3c0.1,0.1,0.3,0.2,0.5,0.2
			c0.2,0.1,0.4,0.1,0.7,0.2c0.5,0.1,0.9,0.2,1.3,0.3c0.4,0.1,0.7,0.3,1,0.5c0.3,0.2,0.5,0.5,0.7,0.8c0.2,0.3,0.2,0.6,0.2,1.1
			c0,0.4-0.1,0.7-0.2,1c-0.2,0.3-0.4,0.6-0.7,0.8c-0.3,0.2-0.7,0.4-1.1,0.5c-0.4,0.1-0.9,0.2-1.5,0.2c-0.6,0-1.1-0.1-1.6-0.2
			c-0.5-0.2-0.8-0.4-1.1-0.7c-0.3-0.3-0.5-0.6-0.7-0.9c-0.2-0.3-0.2-0.7-0.2-1h2.1c0,0.2,0.1,0.4,0.1,0.6c0.1,0.2,0.2,0.3,0.3,0.4
			c0.1,0.1,0.3,0.2,0.5,0.2c0.2,0,0.4,0.1,0.6,0.1c0.4,0,0.8-0.1,1-0.2C172.6,53.2,172.8,52.9,172.8,52.7z"/>
		<path fill="#FFFFFF" d="M185,52.7c0-0.1,0-0.2-0.1-0.3c0-0.1-0.1-0.2-0.3-0.3c-0.1-0.1-0.3-0.2-0.5-0.2c-0.2-0.1-0.5-0.2-0.9-0.2
			c-0.4-0.1-0.8-0.2-1.2-0.4c-0.4-0.1-0.7-0.3-1-0.5c-0.3-0.2-0.5-0.5-0.6-0.7c-0.2-0.3-0.2-0.6-0.2-1c0-0.4,0.1-0.7,0.2-1
			c0.2-0.3,0.4-0.6,0.7-0.8c0.3-0.2,0.6-0.4,1.1-0.6c0.4-0.1,0.9-0.2,1.4-0.2c0.5,0,1,0.1,1.5,0.2c0.4,0.1,0.8,0.3,1.1,0.6
			c0.3,0.2,0.5,0.5,0.7,0.9c0.2,0.3,0.2,0.7,0.2,1.1h-2.3c0-0.3-0.1-0.6-0.3-0.8c-0.2-0.2-0.5-0.3-1-0.3c-0.4,0-0.7,0.1-0.9,0.3
			c-0.2,0.2-0.3,0.4-0.3,0.7c0,0.1,0,0.2,0.1,0.3c0.1,0.1,0.1,0.2,0.3,0.3c0.1,0.1,0.3,0.2,0.5,0.2c0.2,0.1,0.4,0.1,0.7,0.2
			c0.5,0.1,0.9,0.2,1.3,0.3c0.4,0.1,0.7,0.3,1,0.5c0.3,0.2,0.5,0.5,0.7,0.8c0.2,0.3,0.2,0.6,0.2,1.1c0,0.4-0.1,0.7-0.2,1
			c-0.2,0.3-0.4,0.6-0.7,0.8c-0.3,0.2-0.7,0.4-1.1,0.5c-0.4,0.1-0.9,0.2-1.5,0.2c-0.6,0-1.1-0.1-1.6-0.2c-0.5-0.2-0.8-0.4-1.1-0.7
			c-0.3-0.3-0.5-0.6-0.7-0.9c-0.2-0.3-0.2-0.7-0.2-1h2.1c0,0.2,0.1,0.4,0.1,0.6c0.1,0.2,0.2,0.3,0.3,0.4c0.1,0.1,0.3,0.2,0.5,0.2
			c0.2,0,0.4,0.1,0.6,0.1c0.4,0,0.8-0.1,1-0.2C184.9,53.2,185,52.9,185,52.7z"/>
		<path fill="#FFFFFF" d="M191.3,44.5v2.1h1.4v1.7h-1.4v4.2c0,0.2,0,0.3,0.1,0.4c0,0.1,0.1,0.2,0.2,0.3c0.1,0.1,0.2,0.1,0.3,0.1
			c0.1,0,0.2,0,0.4,0c0.1,0,0.3,0,0.4,0c0.1,0,0.2,0,0.3,0V55c-0.2,0.1-0.4,0.1-0.6,0.1c-0.2,0-0.5,0.1-0.8,0.1c-0.4,0-0.7,0-1-0.1
			c-0.3-0.1-0.6-0.2-0.8-0.4c-0.2-0.2-0.4-0.5-0.5-0.8c-0.1-0.3-0.2-0.7-0.2-1.1v-4.5h-1.2v-1.7h1.2v-2.1H191.3z"/>
		<path fill="#FFFFFF" d="M198.9,55c-0.1-0.2-0.2-0.5-0.2-0.8c-0.2,0.3-0.5,0.5-0.9,0.6c-0.3,0.2-0.8,0.3-1.3,0.3
			c-0.4,0-0.8-0.1-1.1-0.2c-0.4-0.1-0.7-0.3-0.9-0.5c-0.3-0.2-0.5-0.5-0.6-0.8c-0.1-0.3-0.2-0.6-0.2-1c0-0.4,0.1-0.8,0.2-1.2
			c0.2-0.3,0.4-0.6,0.7-0.9c0.3-0.2,0.7-0.4,1.2-0.5c0.5-0.1,1.1-0.2,1.7-0.2h1v-0.5c0-0.4-0.1-0.7-0.3-0.9
			c-0.2-0.2-0.5-0.4-0.9-0.4c-0.4,0-0.7,0.1-0.9,0.3c-0.2,0.2-0.3,0.4-0.3,0.8h-2.3c0-0.4,0.1-0.7,0.3-1c0.2-0.3,0.4-0.6,0.7-0.9
			c0.3-0.2,0.7-0.4,1.1-0.6c0.4-0.1,0.9-0.2,1.5-0.2c0.5,0,0.9,0.1,1.4,0.2c0.4,0.1,0.8,0.3,1.1,0.6c0.3,0.2,0.5,0.6,0.7,0.9
			c0.2,0.4,0.3,0.8,0.3,1.3V53c0,0.2,0,0.5,0,0.6c0,0.2,0,0.4,0.1,0.5c0,0.2,0.1,0.3,0.1,0.4c0,0.1,0.1,0.2,0.1,0.3V55H198.9z
			 M197.1,53.4c0.2,0,0.4,0,0.5-0.1c0.2,0,0.3-0.1,0.4-0.2c0.1-0.1,0.2-0.2,0.3-0.3c0.1-0.1,0.2-0.2,0.2-0.3v-1.5h-0.9
			c-0.3,0-0.6,0-0.8,0.1c-0.2,0.1-0.4,0.2-0.5,0.3c-0.1,0.1-0.2,0.3-0.3,0.4c-0.1,0.2-0.1,0.3-0.1,0.5c0,0.3,0.1,0.5,0.3,0.7
			C196.4,53.4,196.7,53.4,197.1,53.4z"/>
		<path fill="#FFFFFF" d="M202.2,50.7c0-0.6,0.1-1.2,0.2-1.8c0.1-0.5,0.4-1,0.6-1.4c0.3-0.4,0.6-0.7,1-0.9c0.4-0.2,0.9-0.3,1.4-0.3
			c0.4,0,0.8,0.1,1.2,0.2c0.3,0.2,0.6,0.4,0.9,0.7V43h2.3v12h-2l-0.1-0.9c-0.3,0.3-0.6,0.6-0.9,0.8c-0.4,0.2-0.8,0.3-1.2,0.3
			c-0.5,0-1-0.1-1.4-0.3c-0.4-0.2-0.8-0.5-1-0.9c-0.3-0.4-0.5-0.8-0.6-1.4c-0.1-0.5-0.2-1.1-0.2-1.7V50.7z M204.5,50.9
			c0,0.3,0,0.7,0.1,1c0.1,0.3,0.1,0.6,0.3,0.8c0.1,0.2,0.3,0.4,0.5,0.5c0.2,0.1,0.5,0.2,0.8,0.2c0.4,0,0.7-0.1,0.9-0.2
			c0.2-0.2,0.4-0.4,0.6-0.6v-3.3c-0.1-0.3-0.3-0.5-0.6-0.7c-0.2-0.2-0.5-0.2-0.9-0.2c-0.3,0-0.5,0.1-0.8,0.2
			c-0.2,0.1-0.4,0.3-0.5,0.5c-0.1,0.2-0.2,0.5-0.3,0.8c-0.1,0.3-0.1,0.6-0.1,1V50.9z"/>
		<path fill="#FFFFFF" d="M216.2,52.7c0-0.1,0-0.2-0.1-0.3c0-0.1-0.1-0.2-0.3-0.3c-0.1-0.1-0.3-0.2-0.5-0.2
			c-0.2-0.1-0.5-0.2-0.9-0.2c-0.4-0.1-0.8-0.2-1.2-0.4c-0.4-0.1-0.7-0.3-1-0.5c-0.3-0.2-0.5-0.5-0.6-0.7c-0.2-0.3-0.2-0.6-0.2-1
			c0-0.4,0.1-0.7,0.2-1c0.2-0.3,0.4-0.6,0.7-0.8c0.3-0.2,0.6-0.4,1.1-0.6c0.4-0.1,0.9-0.2,1.4-0.2c0.5,0,1,0.1,1.5,0.2
			c0.4,0.1,0.8,0.3,1.1,0.6c0.3,0.2,0.5,0.5,0.7,0.9c0.2,0.3,0.2,0.7,0.2,1.1h-2.3c0-0.3-0.1-0.6-0.3-0.8c-0.2-0.2-0.5-0.3-1-0.3
			c-0.4,0-0.7,0.1-0.9,0.3c-0.2,0.2-0.3,0.4-0.3,0.7c0,0.1,0,0.2,0.1,0.3c0.1,0.1,0.1,0.2,0.3,0.3c0.1,0.1,0.3,0.2,0.5,0.2
			c0.2,0.1,0.4,0.1,0.7,0.2c0.5,0.1,0.9,0.2,1.3,0.3c0.4,0.1,0.7,0.3,1,0.5c0.3,0.2,0.5,0.5,0.7,0.8c0.2,0.3,0.2,0.6,0.2,1.1
			c0,0.4-0.1,0.7-0.2,1c-0.2,0.3-0.4,0.6-0.7,0.8c-0.3,0.2-0.7,0.4-1.1,0.5c-0.4,0.1-0.9,0.2-1.5,0.2c-0.6,0-1.1-0.1-1.6-0.2
			c-0.5-0.2-0.8-0.4-1.1-0.7c-0.3-0.3-0.5-0.6-0.7-0.9c-0.2-0.3-0.2-0.7-0.2-1h2.1c0,0.2,0.1,0.4,0.1,0.6c0.1,0.2,0.2,0.3,0.3,0.4
			c0.1,0.1,0.3,0.2,0.5,0.2c0.2,0,0.4,0.1,0.6,0.1c0.4,0,0.8-0.1,1-0.2C216.1,53.2,216.2,52.9,216.2,52.7z"/>
		<path fill="#FFFFFF" d="M228.4,52.7c0-0.1,0-0.2-0.1-0.3c0-0.1-0.1-0.2-0.3-0.3c-0.1-0.1-0.3-0.2-0.5-0.2
			c-0.2-0.1-0.5-0.2-0.9-0.2c-0.4-0.1-0.8-0.2-1.2-0.4c-0.4-0.1-0.7-0.3-1-0.5c-0.3-0.2-0.5-0.5-0.6-0.7c-0.2-0.3-0.2-0.6-0.2-1
			c0-0.4,0.1-0.7,0.2-1c0.2-0.3,0.4-0.6,0.7-0.8c0.3-0.2,0.6-0.4,1.1-0.6c0.4-0.1,0.9-0.2,1.4-0.2c0.5,0,1,0.1,1.5,0.2
			c0.4,0.1,0.8,0.3,1.1,0.6c0.3,0.2,0.5,0.5,0.7,0.9c0.2,0.3,0.2,0.7,0.2,1.1h-2.3c0-0.3-0.1-0.6-0.3-0.8c-0.2-0.2-0.5-0.3-1-0.3
			c-0.4,0-0.7,0.1-0.9,0.3c-0.2,0.2-0.3,0.4-0.3,0.7c0,0.1,0,0.2,0.1,0.3c0.1,0.1,0.1,0.2,0.3,0.3c0.1,0.1,0.3,0.2,0.5,0.2
			c0.2,0.1,0.4,0.1,0.7,0.2c0.5,0.1,0.9,0.2,1.3,0.3c0.4,0.1,0.7,0.3,1,0.5c0.3,0.2,0.5,0.5,0.7,0.8c0.2,0.3,0.2,0.6,0.2,1.1
			c0,0.4-0.1,0.7-0.2,1c-0.2,0.3-0.4,0.6-0.7,0.8c-0.3,0.2-0.7,0.4-1.1,0.5c-0.4,0.1-0.9,0.2-1.5,0.2c-0.6,0-1.1-0.1-1.6-0.2
			c-0.5-0.2-0.8-0.4-1.1-0.7c-0.3-0.3-0.5-0.6-0.7-0.9c-0.2-0.3-0.2-0.7-0.2-1h2.1c0,0.2,0.1,0.4,0.1,0.6c0.1,0.2,0.2,0.3,0.3,0.4
			c0.1,0.1,0.3,0.2,0.5,0.2c0.2,0,0.4,0.1,0.6,0.1c0.4,0,0.8-0.1,1-0.2C228.3,53.2,228.4,52.9,228.4,52.7z"/>
		<path fill="#FFFFFF" d="M235.1,51.6l-0.8,0.8V55h-2.3V43h2.3v6.6l0.4-0.6l2.2-2.5h2.7l-3.1,3.5l3.3,4.9h-2.6L235.1,51.6z"/>
		<path fill="#FFFFFF" d="M240.2,50.7c0-0.6,0.1-1.2,0.3-1.7c0.2-0.5,0.4-1,0.8-1.4c0.3-0.4,0.8-0.7,1.3-0.9
			c0.5-0.2,1.1-0.3,1.7-0.3c0.6,0,1.2,0.1,1.7,0.3c0.5,0.2,0.9,0.5,1.3,0.9c0.3,0.4,0.6,0.8,0.8,1.4c0.2,0.5,0.3,1.1,0.3,1.7v0.2
			c0,0.6-0.1,1.2-0.3,1.7c-0.2,0.5-0.4,1-0.8,1.4c-0.3,0.4-0.8,0.7-1.3,0.9c-0.5,0.2-1.1,0.3-1.7,0.3c-0.6,0-1.2-0.1-1.7-0.3
			c-0.5-0.2-0.9-0.5-1.3-0.9c-0.3-0.4-0.6-0.8-0.8-1.4c-0.2-0.5-0.3-1.1-0.3-1.7V50.7z M242.5,50.9c0,0.3,0,0.7,0.1,1
			c0.1,0.3,0.2,0.6,0.3,0.8c0.1,0.2,0.3,0.4,0.5,0.5c0.2,0.1,0.5,0.2,0.8,0.2c0.3,0,0.6-0.1,0.8-0.2c0.2-0.1,0.4-0.3,0.5-0.5
			c0.1-0.2,0.2-0.5,0.3-0.8c0.1-0.3,0.1-0.6,0.1-1v-0.2c0-0.3,0-0.6-0.1-0.9c-0.1-0.3-0.2-0.6-0.3-0.8c-0.1-0.2-0.3-0.4-0.5-0.5
			c-0.2-0.1-0.5-0.2-0.8-0.2c-0.3,0-0.6,0.1-0.8,0.2s-0.4,0.3-0.5,0.5c-0.1,0.2-0.2,0.5-0.3,0.8c-0.1,0.3-0.1,0.6-0.1,0.9V50.9z"/>
		<path fill="#FFFFFF" d="M252,55h-2.3V43h2.3V55z"/>
		<path fill="#FFFFFF" d="M253.5,50.7c0-0.6,0.1-1.2,0.3-1.7c0.2-0.5,0.4-1,0.8-1.4c0.3-0.4,0.8-0.7,1.3-0.9
			c0.5-0.2,1.1-0.3,1.7-0.3c0.6,0,1.2,0.1,1.7,0.3c0.5,0.2,0.9,0.5,1.3,0.9c0.3,0.4,0.6,0.8,0.8,1.4c0.2,0.5,0.3,1.1,0.3,1.7v0.2
			c0,0.6-0.1,1.2-0.3,1.7c-0.2,0.5-0.4,1-0.8,1.4c-0.3,0.4-0.8,0.7-1.3,0.9c-0.5,0.2-1.1,0.3-1.7,0.3s-1.2-0.1-1.7-0.3
			c-0.5-0.2-0.9-0.5-1.3-0.9c-0.3-0.4-0.6-0.8-0.8-1.4c-0.2-0.5-0.3-1.1-0.3-1.7V50.7z M255.8,50.9c0,0.3,0,0.7,0.1,1
			c0.1,0.3,0.2,0.6,0.3,0.8c0.1,0.2,0.3,0.4,0.5,0.5c0.2,0.1,0.5,0.2,0.8,0.2c0.3,0,0.6-0.1,0.8-0.2c0.2-0.1,0.4-0.3,0.5-0.5
			c0.1-0.2,0.2-0.5,0.3-0.8c0.1-0.3,0.1-0.6,0.1-1v-0.2c0-0.3,0-0.6-0.1-0.9c-0.1-0.3-0.2-0.6-0.3-0.8c-0.1-0.2-0.3-0.4-0.5-0.5
			c-0.2-0.1-0.5-0.2-0.8-0.2c-0.3,0-0.6,0.1-0.8,0.2c-0.2,0.1-0.4,0.3-0.5,0.5c-0.1,0.2-0.2,0.5-0.3,0.8c-0.1,0.3-0.1,0.6-0.1,0.9
			V50.9z"/>
		<path fill="#FFFFFF" d="M267.7,48.7c-0.1,0-0.2,0-0.4,0c-0.2,0-0.3,0-0.4,0c-0.4,0-0.8,0.1-1.1,0.2c-0.3,0.1-0.5,0.4-0.6,0.6V55
			h-2.3v-8.5h2.1l0.1,1c0.2-0.4,0.5-0.6,0.8-0.9c0.3-0.2,0.7-0.3,1.1-0.3c0.1,0,0.2,0,0.4,0c0.1,0,0.2,0,0.3,0.1L267.7,48.7z"/>
	</g>
	<g>
		<path fill="#FFFFFF" d="M3.7,4.5v51h51v-51H3.7z M38.8,30.7c0,2.3-0.3,4.4-0.9,6.3c-0.6,1.9-1.5,3.4-2.7,4.7
			c-1.1,1.3-2.5,2.3-4.1,3c-1.6,0.7-3.4,1-5.3,1c-1.9,0-3.7-0.3-5.3-1c-1.6-0.7-3-1.7-4.1-3c-1.2-1.3-2.1-2.9-2.7-4.7
			c-0.6-1.9-1-4-1-6.3v-1.3c0-2.3,0.3-4.4,1-6.3c0.6-1.9,1.5-3.4,2.7-4.7c1.1-1.3,2.5-2.3,4.1-3c1.6-0.7,3.4-1,5.3-1
			c1.9,0,3.7,0.3,5.3,1c1.6,0.7,3,1.7,4.1,3c1.1,1.3,2,2.9,2.7,4.7c0.6,1.9,1,4,1,6.3V30.7z M47.4,43.6c-0.2,0.4-0.4,0.7-0.7,1
			c-0.3,0.3-0.7,0.5-1.1,0.7c-0.4,0.2-0.9,0.2-1.4,0.2c-0.5,0-1-0.1-1.4-0.2c-0.4-0.2-0.8-0.4-1.1-0.7c-0.3-0.3-0.5-0.6-0.7-1
			c-0.2-0.4-0.2-0.8-0.2-1.3s0.1-0.9,0.2-1.3c0.2-0.4,0.4-0.7,0.7-1c0.3-0.3,0.7-0.5,1.1-0.7c0.4-0.2,0.9-0.3,1.4-0.3
			c0.5,0,1,0.1,1.4,0.3c0.4,0.2,0.8,0.4,1.1,0.7c0.3,0.3,0.5,0.6,0.7,1c0.2,0.4,0.2,0.8,0.2,1.3S47.5,43.2,47.4,43.6z"/>
		<path fill="#FFFFFF" d="M25.8,19.5c-2.1,0-3.8,0.8-4.9,2.5c-1.1,1.7-1.7,4.1-1.7,7.3v1.4c0,1.6,0.2,3,0.5,4.2
			c0.3,1.2,0.7,2.3,1.3,3.1c0.6,0.8,1.3,1.5,2.1,1.9c0.8,0.4,1.8,0.6,2.8,0.6c2.1,0,3.8-0.8,4.9-2.5c1.1-1.7,1.7-4.1,1.7-7.3v-1.4
			c0-3.2-0.6-5.6-1.7-7.3C29.5,20.3,27.9,19.5,25.8,19.5z"/>
	</g>
</g>
</svg>
