<?xml version="1.0" encoding="utf-8"?>
<!-- Generator: Adobe Illustrator 15.0.2, SVG Export Plug-In  -->
<!DOCTYPE svg PUBLIC "-//W3C//DTD SVG 1.1//EN" "http://www.w3.org/Graphics/SVG/1.1/DTD/svg11.dtd" [
	<!ENTITY ns_flows "http://ns.adobe.com/Flows/1.0/">
]>
<svg version="1.1"
	 xmlns="http://www.w3.org/2000/svg" xmlns:xlink="http://www.w3.org/1999/xlink" xmlns:a="http://ns.adobe.com/AdobeSVGViewerExtensions/3.0/"
	 x="0px" y="0px" width="254px" height="80px" viewBox="-4.513 -5.922 254 80"
	 overflow="visible" enable-background="new -4.513 -5.922 254 80" xml:space="preserve">
<defs>
</defs>
<polygon fill="#FFFFFF" points="74.952,42.118 74.952,34.883 66.616,34.883 66.616,42.118 63.989,42.118 63.989,25.62 66.616,25.62 
	66.616,32.579 74.952,32.579 74.952,25.62 77.583,25.62 77.583,42.118 "/>
<polygon fill="#FFFFFF" points="83.745,42.118 83.745,25.62 92.558,25.62 91.758,27.874 86.374,27.874 86.374,32.554 91.731,32.554 
	91.731,34.808 86.374,34.808 86.374,39.866 92.583,39.866 92.583,42.118 "/>
<polygon fill="#FFFFFF" points="98.068,42.118 98.068,25.62 100.672,25.62 100.672,39.866 106.706,39.866 106.706,42.118 "/>
<path fill="#FFFFFF" d="M115.296,42.371c-2.28,0-3.833-0.753-4.883-1.43l1.101-1.979c0.829,0.577,2.128,1.228,3.682,1.228
	c1.352,0,2.93-0.599,2.93-2.102c0-2.53-3.982-3.028-5.983-5.259c-0.678-0.753-1.127-1.68-1.127-2.955
	c0-2.403,1.853-4.408,5.182-4.408c1.753,0,3.056,0.454,3.905,0.902l-0.023,2.455c-1.127-0.677-2.405-1.151-3.757-1.151
	c-1.426,0-2.604,0.599-2.604,1.902c0,3.255,7.21,3.156,7.21,8.209C120.928,40.566,118.475,42.371,115.296,42.371"/>
<rect x="126.163" y="25.62" fill="#FFFFFF" width="2.63" height="16.499"/>
<path fill="#FFFFFF" d="M146.971,42.118l-7.761-10.138c-0.803-1.054-1.252-1.704-1.654-2.381h-0.05
	c0.05,0.553,0.05,1.354,0.05,2.153v10.366h-2.603V25.62h2.653l7.46,9.762c0.903,1.175,1.356,1.804,1.729,2.479h0.052
	c-0.029-0.676-0.052-1.502-0.052-2.303V25.62h2.626v16.499H146.971z"/>
<path fill="#FFFFFF" d="M162.496,42.371c-5.029,0-8.261-3.531-8.261-8.289c0-4.981,3.582-8.615,8.963-8.615
	c2.102,0,3.702,0.478,4.78,0.927l-0.023,2.53c-1.204-0.625-2.781-1.227-4.581-1.227c-4.282,0-6.309,2.704-6.309,6.136
	c0,3.702,2.328,6.309,6.108,6.309c1.224,0,2.175-0.227,2.777-0.551v-5.687h2.63v7.011C167.252,41.618,165.076,42.371,162.496,42.371
	"/>
<path fill="#FFFFFF" d="M179.35,42.118h-4.857V25.62h5.006c3.155,0,4.612,2.102,4.612,4.055c0,1.528-0.729,2.88-2.105,3.505v0.024
	c1.724,0.377,3.155,1.957,3.155,4.007C185.16,39.517,183.58,42.118,179.35,42.118 M177.119,27.898v4.681h1.878
	c1.23,0,2.429-0.902,2.429-2.403c0-1.376-0.825-2.278-2.626-2.278H177.119z M179.35,34.832h-2.23v5.035h2.105
	c2.13,0,3.205-1.052,3.205-2.632C182.43,35.835,181.277,34.832,179.35,34.832"/>
<path fill="#FFFFFF" d="M191.396,27.874c1.477-1.504,3.553-2.406,5.984-2.406c2.602,0,4.78,0.954,6.256,2.579
	c1.352,1.503,2.077,3.53,2.077,5.859c0,2.479-0.85,4.657-2.374,6.159c-1.505,1.477-3.533,2.307-5.959,2.307
	c-2.331,0-4.284-0.729-5.735-2.032c-1.653-1.524-2.604-3.753-2.604-6.333C189.042,31.556,189.892,29.398,191.396,27.874
	 M197.381,27.746c-3.329,0-5.56,2.358-5.56,6.208c0,3.831,2.23,6.189,5.56,6.189c3.304,0,5.53-2.358,5.53-6.189
	C202.911,30.249,200.833,27.746,197.381,27.746"/>
<path fill="#FFFFFF" d="M219.188,42.118c-2.578-4.257-3.854-6.509-4.508-6.685h-1.528v6.685h-2.626V25.62h4.103
	c4.135,0,5.71,2.078,5.71,4.608c0,2.25-1.475,3.702-3.104,4.351v0.028c0.678,0.35,2.427,3.281,5.01,7.511H219.188z M214.657,27.898
	h-1.505v5.482h1.554c1.704,0,2.954-1.303,2.954-2.875C217.66,29.077,216.786,27.898,214.657,27.898"/>
<path fill="#FFFFFF" d="M233.738,42.371c-5.032,0-8.265-3.531-8.265-8.289c0-4.981,3.58-8.615,8.966-8.615
	c2.102,0,3.703,0.478,4.781,0.927l-0.028,2.53c-1.198-0.625-2.775-1.227-4.576-1.227c-4.283,0-6.312,2.704-6.312,6.136
	c0,3.702,2.329,6.309,6.107,6.309c1.228,0,2.177-0.227,2.779-0.551v-5.687h2.63v7.011C238.495,41.618,236.316,42.371,233.738,42.371
	"/>
<path fill="#FFFFFF" d="M43.105,17.792H22.224l0,0h-0.012l0,0H1.317c-0.013,37.936,0,37.936,0,39.743
	c0,1.698,0.712,3.497,3.412,4.196c2.694,0.698,12.783,3.071,14.577,3.494c2.446,0.574,2.88,2.343,2.912,2.484v0.013l0.001-0.005
	l0.002,0.005V67.71c0.031-0.142,0.463-1.91,2.908-2.484c1.793-0.423,11.885-2.796,14.579-3.494c2.697-0.699,3.399-2.498,3.399-4.196
	C43.105,55.728,43.116,55.728,43.105,17.792L43.105,17.792z"/>
<path fill="#E20613" stroke="#FFFFFF" stroke-width="0.0463" d="M16.638,39.407H7.583c-0.917,0.348-3.08,1.38-3.08,3.399
	c0,0.672,0.306,1.168,0.567,1.469h6.582L16.638,39.407z"/>
<polygon fill="#E20613" stroke="#FFFFFF" stroke-width="0.0463" points="22.022,34.151 22.206,34.339 22.208,34.339 22.394,34.151 
	27.064,38.709 27.064,29.449 17.354,29.449 17.354,38.709 "/>
<path fill="#E20613" stroke="#FFFFFF" stroke-width="0.0463" d="M12.124,44.809H5.433v6.062h0.85v2.413h3.728v-2.483h2.943v-5.757
	C12.599,45.018,12.322,44.913,12.124,44.809z"/>
<path fill="#E20613" stroke="#FFFFFF" stroke-width="0.0463" d="M29.715,44.734c-0.225,0.148-0.727,0.414-1.439,0.416
	c-0.001,0-0.002,0-0.002,0c-0.706,0-1.161-0.189-1.381-0.309c-0.232,0.109-0.72,0.283-1.437,0.283
	c-0.684-0.002-1.216-0.231-1.475-0.367c-0.245,0.152-0.76,0.354-1.773,0.353c-1.011,0.001-1.526-0.2-1.77-0.353
	c-0.26,0.136-0.792,0.365-1.475,0.367c-0.717,0-1.204-0.174-1.436-0.283c-0.22,0.119-0.678,0.309-1.385,0.309
	c-0.713-0.002-1.212-0.268-1.438-0.416c-0.227,0.082-0.701,0.234-1.22,0.291v5.775h2.097v2.411h3.771v-2.276h5.676v2.276h3.77
	v-2.411h2.136v-5.775C30.415,44.969,29.941,44.816,29.715,44.734z"/>
<path fill="#E20613" stroke="#FFFFFF" stroke-width="0.0463" d="M36.839,39.407h-9.062l4.989,4.868h6.585
	c0.261-0.301,0.567-0.797,0.567-1.469C39.919,40.787,37.755,39.755,36.839,39.407z"/>
<path fill="#E20613" stroke="#FFFFFF" stroke-width="0.0463" d="M31.464,45.044v5.757h2.906v2.483h3.724v-2.326v-0.087h0.894v-6.062
	h-6.694C32.096,44.913,31.818,45.018,31.464,45.044z"/>
<path fill="#E20613" stroke="#FFFFFF" stroke-width="0.0463" d="M38.829,51.608v2.41h-5.192v-2.479h-4.105v2.411h-5.237v-2.277
	h-4.209v2.277h-5.238v-2.411h-4.105v2.479H5.551v-2.41H1.313c-0.002,4.592-0.002,5.049-0.002,5.927c0,1.698,0.714,3.497,3.41,4.196
	c2.695,0.698,12.786,3.071,14.579,3.494c2.446,0.574,2.903,2.497,2.903,2.497s0.475-1.923,2.919-2.497
	c1.795-0.423,11.885-2.796,14.58-3.494c2.696-0.699,3.409-2.498,3.409-4.196c0-0.878,0-1.335,0-5.927H38.829z"/>
<polygon fill="#E20613" stroke="#FFFFFF" stroke-width="0.0463" points="18.333,26.002 18.333,27.325 19.251,27.325 19.251,25.898 
	21.62,25.898 21.62,27.325 22.798,27.325 22.798,25.898 25.166,25.898 25.166,27.325 26.085,27.325 26.085,26.002 26.551,26.002 
	22.211,22.644 22.211,22.642 22.209,22.644 17.871,26.002 "/>
<path fill="#E20613" d="M22.211,22.457c0.209,0,0.379-0.171,0.379-0.38c0-0.209-0.169-0.379-0.379-0.379
	c-0.211,0-0.383,0.169-0.383,0.379C21.829,22.286,22,22.457,22.211,22.457"/>
<path fill="#E20613" d="M22.926,20.264c0,0-0.178,0.061-0.255,0.069l0,0c-0.029,0.004-0.065,0.005-0.1,0.005
	c-0.016,0-0.029,0-0.044,0c0.007-0.069,0.015-0.16,0.015-0.245c-0.004-0.104,0.114-0.341,0.114-0.342l0.101-0.192l-0.211,0.054
	c0,0-0.247,0.06-0.336,0.058c-0.086,0.002-0.335-0.058-0.335-0.058l-0.211-0.054l0.1,0.192c0.004,0.001,0.118,0.238,0.115,0.342
	c0,0.085,0.007,0.176,0.014,0.245c-0.014,0-0.028,0-0.042,0c-0.036,0-0.072-0.001-0.1-0.005c-0.08-0.008-0.256-0.069-0.256-0.069
	l-0.128-0.045v0.459c0,0.125,0.024,0.372,0.024,0.374l0.015,0.147l0.13-0.072c-0.001,0,0.135-0.073,0.203-0.092
	c0.037-0.008,0.096-0.022,0.146-0.034c0,0.015,0,0.03,0,0.045c0,0.043-0.003,0.086-0.005,0.125
	c-0.009,0.097-0.119,0.427-0.119,0.427l-0.05,0.144l0.042-0.004c0.104-0.142,0.271-0.235,0.461-0.235
	c0.189,0,0.356,0.094,0.462,0.235l0.038,0.004l-0.048-0.144c-0.003,0-0.113-0.331-0.121-0.427c-0.004-0.039-0.004-0.082-0.004-0.125
	c0-0.015,0-0.031,0-0.045c0.048,0.01,0.104,0.024,0.142,0.034c0.069,0.02,0.205,0.094,0.205,0.092l0.129,0.072l0.016-0.147
	c0-0.001,0.024-0.249,0.024-0.374v-0.459L22.926,20.264L22.926,20.264z"/>
<path fill="#E20613" d="M9.53,27.433c0.268,0,0.486,0.218,0.486,0.485c0,0.268-0.218,0.485-0.486,0.485
	c-0.269,0-0.485-0.217-0.485-0.485C9.044,27.651,9.261,27.433,9.53,27.433"/>
<polygon fill="#E20613" points="9.773,28.698 9.287,28.698 9.287,30.354 9.773,30.354 9.773,28.698 "/>
<path fill="#E20613" d="M34.89,27.433c0.268,0,0.487,0.218,0.487,0.485c0,0.268-0.219,0.485-0.487,0.485
	c-0.268,0-0.485-0.217-0.485-0.485C34.404,27.651,34.622,27.433,34.89,27.433"/>
<polygon fill="#E20613" points="35.133,28.698 34.646,28.698 34.646,30.354 35.133,30.354 35.133,28.698 "/>
<polygon fill="#E20613" points="42.824,0.116 42.824,0.772 41.81,0.772 41.81,0.116 40.334,0.116 40.334,0.772 39.323,0.772 
	39.323,0.116 37.843,0.116 37.843,1.854 38.514,1.854 38.514,4.514 37.417,4.514 37.417,6.228 35.296,6.228 35.296,4.514 
	34.2,4.514 34.2,1.854 34.871,1.854 34.871,0.116 33.394,0.116 33.394,0.772 32.381,0.772 32.381,0.116 30.903,0.116 30.903,0.772 
	29.89,0.772 29.89,0.116 28.41,0.116 28.41,1.854 29.084,1.854 29.084,4.514 27.987,4.514 27.987,6.228 25.866,6.228 25.866,4.514 
	24.768,4.514 24.768,1.854 25.439,1.854 25.439,0.116 23.962,0.116 23.962,0.772 22.95,0.772 22.95,0.116 21.471,0.116 
	21.471,0.772 20.459,0.772 20.459,0.116 18.98,0.116 18.98,1.854 19.652,1.854 19.652,4.514 18.554,4.514 18.554,6.228 
	16.436,6.228 16.436,4.514 15.336,4.514 15.336,1.854 16.009,1.854 16.009,0.116 14.529,0.116 14.529,0.772 13.518,0.772 
	13.518,0.116 12.041,0.116 12.041,0.772 11.027,0.772 11.027,0.116 9.551,0.116 9.551,1.854 10.221,1.854 10.221,4.514 9.123,4.514 
	9.123,6.228 7.004,6.228 7.004,4.514 5.906,4.514 5.906,1.854 6.578,1.854 6.578,0.116 5.098,0.116 5.098,0.772 4.088,0.772 
	4.088,0.116 2.607,0.116 2.607,0.772 1.598,0.772 1.598,0.116 0.116,0.116 0.116,1.854 0.788,1.854 0.788,6.307 3.368,9.05 
	3.368,13.348 2.088,13.348 2.088,17.792 42.333,17.792 42.333,13.348 41.052,13.348 41.052,9.05 43.63,6.307 43.63,1.854 
	44.301,1.854 44.301,0.116 42.824,0.116 "/>
<rect x="27.595" y="35.337" fill="#E20613" stroke="#FFFFFF" stroke-width="0.0463" width="8.84" height="3.538"/>
<polygon fill="#E20613" stroke="#FFFFFF" stroke-width="0.0463" points="27.595,30.674 27.595,34.805 38.362,34.805 35.275,30.674 
	"/>
<polygon fill="#E20613" stroke="#FFFFFF" stroke-width="0.0463" points="16.822,30.674 9.146,30.674 6.057,34.805 16.822,34.805 "/>
<rect x="7.986" y="35.337" fill="#E20613" stroke="#FFFFFF" stroke-width="0.0463" width="8.835" height="3.538"/>
<path fill="#FFFFFF" d="M16.733,49.412h-1.586v-2.283c0.251-0.768,1.337-0.768,1.586,0V49.412L16.733,49.412z"/>
<path fill="#FFFFFF" d="M23.199,49.412h-1.98v-2.526c0.311-0.958,1.671-0.958,1.98,0V49.412L23.199,49.412z"/>
<path fill="#FFFFFF" d="M19.933,49.412h-1.982v-2.526c0.312-0.958,1.671-0.958,1.982,0V49.412L19.933,49.412z"/>
<path fill="#FFFFFF" d="M27.685,49.412h1.586v-2.283c-0.251-0.768-1.336-0.768-1.586,0V49.412L27.685,49.412z"/>
<path fill="#FFFFFF" d="M24.486,49.412h1.982v-2.526c-0.312-0.958-1.671-0.958-1.982,0V49.412L24.486,49.412z"/>
<path fill="#FFFFFF" stroke="#FFFFFF" stroke-width="0.0463" d="M7.574,48.032H6.454v-1.306c0.177-0.543,0.945-0.543,1.121,0V48.032
	L7.574,48.032z"/>
<path fill="#FFFFFF" stroke="#FFFFFF" stroke-width="0.0463" d="M9.798,48.032H8.674v-1.306c0.178-0.543,0.945-0.543,1.124,0V48.032
	L9.798,48.032z"/>
<path fill="#FFFFFF" stroke="#FFFFFF" stroke-width="0.0463" d="M12.021,48.032h-1.122v-1.306c0.176-0.543,0.945-0.543,1.122,0
	V48.032L12.021,48.032z"/>
<path fill="#FFFFFF" stroke="#FFFFFF" stroke-width="0.0463" d="M33.519,48.032h-1.121v-1.306c0.177-0.543,0.945-0.543,1.121,0
	V48.032L33.519,48.032z"/>
<path fill="#FFFFFF" stroke="#FFFFFF" stroke-width="0.0463" d="M35.743,48.032h-1.125v-1.306c0.18-0.543,0.947-0.543,1.125,0
	V48.032L35.743,48.032z"/>
<path fill="#FFFFFF" stroke="#FFFFFF" stroke-width="0.0463" d="M37.964,48.032h-1.123v-1.306c0.177-0.543,0.946-0.543,1.123,0
	V48.032L37.964,48.032z"/>
<path fill="#FFFFFF" stroke="#FFFFFF" stroke-width="0.0463" d="M10.781,37.801H9.659v-1.305c0.178-0.543,0.946-0.543,1.122,0
	V37.801L10.781,37.801z"/>
<path fill="#FFFFFF" stroke="#FFFFFF" stroke-width="0.0463" d="M13.004,37.801h-1.123v-1.305c0.177-0.543,0.945-0.543,1.123,0
	V37.801L13.004,37.801z"/>
<path fill="#FFFFFF" stroke="#FFFFFF" stroke-width="0.0463" d="M15.226,37.801h-1.121v-1.305c0.175-0.543,0.944-0.543,1.121,0
	V37.801L15.226,37.801z"/>
<path fill="#FFFFFF" stroke="#FFFFFF" stroke-width="0.0463" d="M30.313,37.801H29.19v-1.305c0.178-0.543,0.945-0.543,1.123,0
	V37.801L30.313,37.801z"/>
<path fill="#FFFFFF" stroke="#FFFFFF" stroke-width="0.0463" d="M32.536,37.801h-1.121v-1.305c0.176-0.543,0.945-0.543,1.121,0
	V37.801L32.536,37.801z"/>
<path fill="#FFFFFF" stroke="#FFFFFF" stroke-width="0.0463" d="M34.757,37.801h-1.121v-1.305c0.175-0.543,0.944-0.543,1.121,0
	V37.801L34.757,37.801z"/>
<path fill="#FFFFFF" stroke="#FFFFFF" stroke-width="0.0463" d="M20.548,31.82h-1.123v-1.305c0.178-0.543,0.947-0.543,1.123,0V31.82
	L20.548,31.82z"/>
<path fill="#FFFFFF" stroke="#FFFFFF" stroke-width="0.0463" d="M22.77,31.82h-1.125v-1.305c0.181-0.543,0.949-0.543,1.125,0V31.82
	L22.77,31.82z"/>
<path fill="#FFFFFF" stroke="#FFFFFF" stroke-width="0.0463" d="M24.993,31.82H23.87v-1.305c0.178-0.543,0.944-0.543,1.123,0V31.82
	L24.993,31.82z"/>
<path fill="#E20613" stroke="#FFFFFF" stroke-width="0.0463" d="M15.229,44.418c0.212,0.098,0.522,0.197,0.914,0.197l0,0
	c0.814,0,1.193-0.279,1.209-0.289l0,0l0,0l0.055-0.045l3.961-8.51l-6.185,8.625C15.198,44.404,15.212,44.412,15.229,44.418
	L15.229,44.418z"/>
<path fill="#E20613" stroke="#FFFFFF" stroke-width="0.0463" d="M17.969,44.445c0.219,0.072,0.552,0.146,0.994,0.146l0,0
	c0.688,0.002,1.223-0.297,1.331-0.365l0,0c0.014-0.009,0.019-0.01,0.019-0.01l0,0l0.001-0.002l1.529-8.687l-3.918,8.901
	C17.938,44.435,17.953,44.44,17.969,44.445L17.969,44.445z"/>
<path fill="#E20613" stroke="#FFFFFF" stroke-width="0.0463" d="M20.896,44.394c0.217,0.086,0.621,0.185,1.312,0.185l0,0
	c0.778,0,1.187-0.121,1.385-0.215l0,0l-1.385-9.018l-1.38,9.02C20.847,44.372,20.87,44.383,20.896,44.394L20.896,44.394z"/>
<path fill="#E20613" stroke="#FFFFFF" stroke-width="0.0463" d="M12.371,44.338c0.167,0.088,0.413,0.18,0.751,0.18l0,0
	c0.522,0.002,1.129-0.186,1.389-0.277l0,0c0.086-0.031,0.133-0.051,0.133-0.051l0,0l0.05-0.02l5.997-8.084l-8.333,8.243
	C12.362,44.332,12.366,44.334,12.371,44.338L12.371,44.338z"/>
<path fill="#E20613" stroke="#FFFFFF" stroke-width="0.0463" d="M29.188,44.418c0.016-0.006,0.029-0.014,0.044-0.021l-6.192-8.639
	l3.968,8.523l0.056,0.045l0,0l0,0c0.017,0.01,0.396,0.289,1.21,0.289l0,0C28.666,44.615,28.976,44.516,29.188,44.418L29.188,44.418z
	"/>
<path fill="#E20613" stroke="#FFFFFF" stroke-width="0.0463" d="M26.448,44.445c0.016-0.005,0.03-0.011,0.044-0.016l-3.929-8.902
	l1.54,8.688l0.001,0.002l0,0c0,0,0.004,0.001,0.019,0.01l0,0c0.107,0.068,0.642,0.367,1.33,0.365l0,0
	C25.896,44.592,26.228,44.518,26.448,44.445L26.448,44.445z"/>
<path fill="#E20613" stroke="#FFFFFF" stroke-width="0.0463" d="M32.045,44.338c0.004-0.004,0.009-0.006,0.014-0.009l-8.345-8.251
	l6.008,8.092l0.049,0.02l0,0c0,0,0.046,0.02,0.133,0.051l0,0c0.26,0.092,0.866,0.279,1.389,0.277l0,0
	C31.632,44.518,31.879,44.426,32.045,44.338L32.045,44.338z"/>
<polygon fill="#FFFFFF" points="23.196,33.474 22.208,34.461 21.221,33.474 22.208,32.487 23.196,33.474 "/>
<polygon fill="#E20613" points="16.393,28.906 28.026,28.906 28.026,26.546 26.628,26.546 26.628,27.868 24.622,27.868 
	24.622,26.443 23.342,26.443 23.342,27.868 21.076,27.868 21.076,26.443 19.796,26.443 19.796,27.868 17.79,27.868 17.79,26.546 
	16.393,26.546 16.393,28.906 "/>
<path fill="none" stroke="#FFFFFF" stroke-width="0.2314" d="M42.824,0.116v0.657H41.81V0.116h-1.476v0.657h-1.011V0.116h-1.48
	v1.739h0.67v2.66h-1.097v1.714h-2.121V4.514H34.2v-2.66h0.671V0.116h-1.477v0.657h-1.013V0.116h-1.478v0.657H29.89V0.116h-1.48
	v1.739h0.674v2.66h-1.097v1.714h-2.121V4.514h-1.098v-2.66h0.671V0.116h-1.477v0.657H22.95V0.116h-1.479v0.657h-1.012V0.116H18.98
	v1.739h0.672v2.66h-1.098v1.714h-2.118V4.514h-1.1v-2.66h0.673V0.116h-1.48v0.657h-1.011V0.116h-1.477v0.657h-1.014V0.116H9.551
	v1.739h0.67v2.66H9.123v1.714H7.004V4.514H5.906v-2.66h0.672V0.116h-1.48v0.657h-1.01V0.116H2.607v0.657H1.598V0.116H0.116v1.739
	h0.672v4.452l2.58,2.743v4.298H2.088v4.444H1.317c-0.013,37.936,0,37.936,0,39.743c0,1.698,0.7,3.497,3.397,4.196
	c2.695,0.698,12.785,3.065,14.58,3.494c2.411,0.574,2.91,2.497,2.91,2.497s0.517-1.923,2.912-2.497
	c1.791-0.431,11.884-2.796,14.58-3.494c2.696-0.699,3.411-2.498,3.411-4.196c0-1.808,0.011-1.808,0-39.743h-0.772v-4.444h-1.281
	V9.05l2.578-2.743V1.854h0.671V0.116H42.824z"/>
</svg>
